<svg width="478" height="495" viewBox="0 0 478 495" fill="none" xmlns="http://www.w3.org/2000/svg">
<circle cx="293.73" cy="270.093" r="84.8478" transform="rotate(-2.27749 293.73 270.093)" fill="#302A2A" fill-opacity="0.83"/>
<ellipse cx="384.483" cy="397.989" rx="18.7716" ry="18.0208" transform="rotate(-2.27749 384.483 397.989)" fill="#302A2A" fill-opacity="0.83"/>
<path opacity="0.67" d="M68.2357 298.309L67.2398 296.118L64.9062 295.53C36.908 288.471 17.4594 261.864 20.2342 232.221C22.1883 211.346 34.6865 193.995 51.9964 184.945L54.1298 183.83L54.5882 181.466C73.285 85.0864 162.457 16.7703 262.259 26.1127C294.926 29.1706 324.917 40.1874 350.508 57.064L353.897 59.2993L356.781 56.4407C368.888 44.437 386.014 37.6972 404.302 39.4091C437.061 42.4757 461.132 71.5179 458.065 104.277C456.224 123.949 445.02 140.488 429.248 149.906L425.764 151.986L427.082 155.823C435.718 180.964 439.277 208.305 436.637 236.509C426.691 342.762 332.493 420.834 226.24 410.888C154.731 404.194 95.9786 359.34 68.2357 298.309Z" stroke="black" stroke-width="10"/>
<circle opacity="0.67" cx="410.435" cy="427.015" r="61.5745" transform="rotate(-2.27749 410.435 427.015)" stroke="black" stroke-width="6"/>
</svg>
